<svg width="388" height="391" viewBox="0 0 388 391" fill="none" xmlns="http://www.w3.org/2000/svg">
<g filter="url(#filter0_iiiii_309_3387)">
<path d="M194 0C289.187 0 368.444 77.9493 385.571 181.043C388.034 195.867 389.266 203.28 386.019 209.505C382.771 215.731 371.308 221.194 348.382 232.119C310.208 250.31 283.374 293.37 283.374 343.593C283.374 345.406 283.374 347.212 283.374 349.002C283.374 368.8 283.374 378.698 277.224 384.849C271.073 391 261.173 391 241.374 391H146.626C126.827 391 116.927 391 110.776 384.849C104.626 378.698 104.626 368.8 104.626 349.002C104.626 347.212 104.626 345.406 104.626 343.593C104.626 293.37 77.7922 250.31 39.6178 232.119C16.6916 221.194 5.22851 215.731 1.98143 209.505C-1.26564 203.28 -0.0342285 195.867 2.4286 181.043C19.5559 77.9493 98.813 0 194 0Z" fill="#0C1828" fill-opacity="0.31"/>
</g>
<defs>
<filter id="filter0_iiiii_309_3387" x="0.0187988" y="-0.513394" width="387.962" height="398.187" filterUnits="userSpaceOnUse" color-interpolation-filters="sRGB">
<feFlood flood-opacity="0" result="BackgroundImageFix"/>
<feBlend mode="normal" in="SourceGraphic" in2="BackgroundImageFix" result="shape"/>
<feColorMatrix in="SourceAlpha" type="matrix" values="0 0 0 0 0 0 0 0 0 0 0 0 0 0 0 0 0 0 127 0" result="hardAlpha"/>
<feOffset dy="0.128348"/>
<feGaussianBlur stdDeviation="2.56697"/>
<feComposite in2="hardAlpha" operator="arithmetic" k2="-1" k3="1"/>
<feColorMatrix type="matrix" values="0 0 0 0 0.909804 0 0 0 0 0.909804 0 0 0 0 0.909804 0 0 0 0.2 0"/>
<feBlend mode="normal" in2="shape" result="effect1_innerShadow_309_3387"/>
<feColorMatrix in="SourceAlpha" type="matrix" values="0 0 0 0 0 0 0 0 0 0 0 0 0 0 0 0 0 0 127 0" result="hardAlpha"/>
<feOffset dy="0.513394"/>
<feGaussianBlur stdDeviation="1.15514"/>
<feComposite in2="hardAlpha" operator="arithmetic" k2="-1" k3="1"/>
<feColorMatrix type="matrix" values="0 0 0 0 0.909804 0 0 0 0 0.909804 0 0 0 0 0.909804 0 0 0 0.5 0"/>
<feBlend mode="normal" in2="effect1_innerShadow_309_3387" result="effect2_innerShadow_309_3387"/>
<feColorMatrix in="SourceAlpha" type="matrix" values="0 0 0 0 0 0 0 0 0 0 0 0 0 0 0 0 0 0 127 0" result="hardAlpha"/>
<feMorphology radius="6.16073" operator="dilate" in="SourceAlpha" result="effect3_innerShadow_309_3387"/>
<feOffset dy="12.5782"/>
<feGaussianBlur stdDeviation="6.41742"/>
<feComposite in2="hardAlpha" operator="arithmetic" k2="-1" k3="1"/>
<feColorMatrix type="matrix" values="0 0 0 0 0.909804 0 0 0 0 0.909804 0 0 0 0 0.909804 0 0 0 0.3 0"/>
<feBlend mode="normal" in2="effect2_innerShadow_309_3387" result="effect3_innerShadow_309_3387"/>
<feColorMatrix in="SourceAlpha" type="matrix" values="0 0 0 0 0 0 0 0 0 0 0 0 0 0 0 0 0 0 127 0" result="hardAlpha"/>
<feMorphology radius="8.2143" operator="dilate" in="SourceAlpha" result="effect4_innerShadow_309_3387"/>
<feOffset dy="-10.5246"/>
<feGaussianBlur stdDeviation="4.36385"/>
<feComposite in2="hardAlpha" operator="arithmetic" k2="-1" k3="1"/>
<feColorMatrix type="matrix" values="0 0 0 0 0.908333 0 0 0 0 0.908333 0 0 0 0 0.908333 0 0 0 1 0"/>
<feBlend mode="normal" in2="effect3_innerShadow_309_3387" result="effect4_innerShadow_309_3387"/>
<feColorMatrix in="SourceAlpha" type="matrix" values="0 0 0 0 0 0 0 0 0 0 0 0 0 0 0 0 0 0 127 0" result="hardAlpha"/>
<feMorphology radius="0.513394" operator="dilate" in="SourceAlpha" result="effect5_innerShadow_309_3387"/>
<feOffset dy="0.898439"/>
<feGaussianBlur stdDeviation="0.705917"/>
<feComposite in2="hardAlpha" operator="arithmetic" k2="-1" k3="1"/>
<feColorMatrix type="matrix" values="0 0 0 0 1 0 0 0 0 1 0 0 0 0 1 0 0 0 1 0"/>
<feBlend mode="normal" in2="effect4_innerShadow_309_3387" result="effect5_innerShadow_309_3387"/>
</filter>
</defs>
</svg>
